<svg width="101" height="94" viewBox="0 0 101 94" fill="none" xmlns="http://www.w3.org/2000/svg">
<g filter="url(#filter0_d_554_2)">
<path d="M75.8237 14.7379V14.6976C75.7471 14.5748 75.6519 14.4659 75.5418 14.3753C71.7026 9.85428 66.9941 6.23607 61.7258 3.75848C56.4575 1.28089 50.7486 0 44.9744 0C39.2001 0 33.4913 1.28089 28.223 3.75848C22.9546 6.23607 18.2462 9.85428 14.407 14.3753C14.2991 14.4664 14.2061 14.5753 14.1315 14.6976V14.7379C8.94857 20.9529 5.58281 28.601 4.43662 36.7679C3.29043 44.9347 4.4123 53.2749 7.66811 60.7911C10.9239 68.3074 16.1759 74.6818 22.7962 79.1522C29.4165 83.6227 37.1249 86 45 86C52.8751 86 60.5835 83.6227 67.2038 79.1522C73.8241 74.6818 79.0761 68.3074 82.3319 60.7911C85.5877 53.2749 86.7096 44.9347 85.5634 36.7679C84.4172 28.601 81.0515 20.9529 75.8685 14.7379H75.8237ZM74.5424 68.6942C71.6315 66.9132 68.5421 65.4741 65.3302 64.4032C67.3162 57.9084 68.3613 51.138 68.4308 44.3182H83.3638C83.0904 53.2491 79.9789 61.8284 74.5232 68.6942H74.5424ZM6.55291 44.3182H21.4859C21.5616 51.1391 22.6133 57.9094 24.6057 64.4032C21.3938 65.4741 18.3044 66.9132 15.3935 68.6942C9.9378 61.8284 6.82629 53.2491 6.55291 44.3182ZM15.4896 17.1554C18.3862 18.9201 21.4581 20.3477 24.6506 21.4128C22.6291 27.9467 21.5621 37.4497 21.4859 44.3182H6.55291C6.83211 35.3403 9.97921 24.0346 15.4896 17.1554ZM46.2396 24.6025C51.8672 24.5189 57.4627 23.6977 62.8959 22.1582C64.8135 28.4571 65.7984 37.7067 65.8684 44.3182H46.214V33.3816L46.2396 24.6025ZM46.2396 21.9164V2.76481C52.7355 3.52362 58.4115 10.0105 61.999 19.6265C56.8551 21.0635 51.5624 21.8325 46.2396 21.9164ZM43.6771 21.9164C38.3544 21.8325 33.0616 21.0634 27.9178 19.6265C31.5052 10.0105 37.1812 3.52362 43.6771 2.76481V21.9164ZM46.2396 24.6025L46.214 33.3816V44.3182H24.0484C24.11 37.708 25.1119 28.4585 27.0209 22.1582C32.454 23.6977 40.612 24.5189 46.2396 24.6025ZM24.0484 44.3182H46.214L46.2396 61.2001C40.6115 61.2878 32.4534 62.1135 27.0209 63.6578C25.1259 57.4001 24.1242 50.8831 24.0484 44.3182ZM43.6771 63.8861V83.1855C37.1556 82.4199 31.4284 75.8794 27.8665 66.1894C33.0263 64.7433 38.3366 63.9697 43.6771 63.8861ZM46.2396 63.8861C51.5801 63.9698 56.8904 64.7434 62.0502 66.1894C58.4884 75.8794 52.7612 82.4199 46.2396 83.1855V63.8861ZM46.2396 61.2001V44.3182H65.8684C65.7919 50.8808 64.7902 57.3955 62.8959 63.6511C57.463 62.109 51.8675 61.2856 46.2396 61.2001ZM68.4308 44.3182C68.3546 37.4497 67.2877 27.9467 65.2662 21.4128C68.4587 20.3478 71.5306 18.9202 74.4271 17.1554C79.9375 24.0346 83.0846 35.3403 83.3638 44.3182H68.4308ZM72.691 15.1207C70.0581 16.6688 67.2803 17.929 64.4013 18.8812C62.0374 12.5152 58.7574 7.38483 54.9137 4.06083C61.6918 5.97658 67.8399 9.80154 72.691 15.1207ZM35.0031 4.06083C31.1593 7.36468 27.8857 12.5152 25.5218 18.8812C22.6429 17.9289 19.865 16.6688 17.2321 15.1207C22.0814 9.80259 28.2272 5.9777 35.0031 4.06083ZM17.136 70.7356C19.7791 69.1699 22.5701 67.8962 25.4642 66.9348C27.8345 73.3679 31.1273 78.5654 34.9967 81.8894C28.1787 79.9618 21.9991 76.1027 17.136 70.7356ZM54.9329 81.8894C58.7766 78.5319 62.0951 73.3679 64.4654 66.9348C67.3594 67.8962 70.1505 69.1699 72.7935 70.7356C67.9252 76.1058 61.7385 79.9652 54.9137 81.8894H54.9329Z" fill="#2282DF"/>
</g>
<rect x="4" y="37.1604" width="83" height="11.679" fill="white"/>
<mask id="path-3-outside-1_554_2" maskUnits="userSpaceOnUse" x="2" y="36.6667" width="87" height="13" fill="black">
<rect fill="white" x="2" y="36.6667" width="87" height="13"/>
<path d="M6.25635 45.5911L8.09717 38.4246H9.06201L8.9541 40.2717L6.98633 47.6667H5.9834L6.25635 45.5911ZM4.87891 38.4246L6.37061 45.5339L6.50391 47.6667H5.4375L3.29834 38.4246H4.87891ZM11.1504 45.5149L12.623 38.4246H14.21L12.0708 47.6667H11.0044L11.1504 45.5149ZM9.43652 38.4246L11.2583 45.6101L11.5249 47.6667H10.522L8.58594 40.2717L8.48438 38.4246H9.43652ZM22.3372 46.4036V47.6667H17.4305V46.4036H22.3372ZM17.8812 38.4246V47.6667H16.2879V38.4246H17.8812ZM21.6961 42.2839V43.5281H17.4305V42.2839H21.6961ZM22.3055 38.4246V39.6941H17.4305V38.4246H22.3055ZM28.0016 43.49H25.6467L25.634 42.3284H27.6906C28.0376 42.3284 28.3317 42.2776 28.5729 42.176C28.8184 42.0702 29.0046 41.92 29.1315 41.7253C29.2585 41.5264 29.322 41.2874 29.322 41.0081C29.322 40.6991 29.2627 40.4473 29.1442 40.2527C29.0257 40.058 28.8438 39.9163 28.5983 39.8274C28.3571 39.7385 28.0482 39.6941 27.6716 39.6941H26.1291V47.6667H24.5358V38.4246H27.6716C28.1794 38.4246 28.6322 38.4732 29.03 38.5706C29.432 38.6679 29.7726 38.8202 30.0519 39.0276C30.3355 39.2307 30.5492 39.4889 30.693 39.802C30.8412 40.1152 30.9152 40.4875 30.9152 40.9192C30.9152 41.3 30.8242 41.6492 30.6423 41.9666C30.4603 42.2797 30.1916 42.5357 29.8361 42.7346C29.4806 42.9335 29.0384 43.052 28.5095 43.0901L28.0016 43.49ZM27.9318 47.6667H25.1452L25.8625 46.4036H27.9318C28.2915 46.4036 28.592 46.3443 28.8332 46.2258C29.0744 46.1031 29.2542 45.936 29.3727 45.7244C29.4955 45.5085 29.5568 45.2568 29.5568 44.969C29.5568 44.6685 29.5039 44.4083 29.3981 44.1882C29.2923 43.9639 29.1252 43.7926 28.8967 43.6741C28.6681 43.5514 28.3698 43.49 28.0016 43.49H26.2116L26.2243 42.3284H28.5539L28.9157 42.7664C29.4235 42.7833 29.8403 42.8954 30.1662 43.1028C30.4963 43.3101 30.7417 43.5789 30.9025 43.9089C31.0633 44.239 31.1437 44.5945 31.1437 44.9753C31.1437 45.5636 31.0147 46.0566 30.7565 46.4543C30.5026 46.8521 30.1366 47.1547 29.6584 47.3621C29.1802 47.5652 28.6047 47.6667 27.9318 47.6667ZM38.5093 45.2864C38.5093 45.0959 38.4797 44.9267 38.4204 44.7786C38.3654 44.6305 38.266 44.495 38.1221 44.3723C37.9782 44.2496 37.7751 44.1311 37.5127 44.0168C37.2546 43.8984 36.9245 43.7778 36.5225 43.655C36.0824 43.5196 35.6761 43.3694 35.3037 43.2043C34.9356 43.0351 34.614 42.8404 34.3389 42.6204C34.0638 42.3961 33.8501 42.1401 33.6978 41.8523C33.5454 41.5603 33.4693 41.2239 33.4693 40.843C33.4693 40.4664 33.5475 40.1236 33.7041 39.8147C33.8649 39.5058 34.0913 39.2392 34.3833 39.0149C34.6795 38.7864 35.0287 38.6108 35.4307 38.488C35.8327 38.3611 36.277 38.2976 36.7637 38.2976C37.4492 38.2976 38.0396 38.4246 38.5347 38.6785C39.034 38.9324 39.417 39.273 39.6836 39.7004C39.9544 40.1278 40.0899 40.5997 40.0899 41.116H38.5093C38.5093 40.8113 38.4437 40.5426 38.3125 40.3098C38.1856 40.0728 37.9909 39.8866 37.7285 39.7512C37.4704 39.6158 37.1424 39.5481 36.7446 39.5481C36.368 39.5481 36.0549 39.6052 35.8052 39.7195C35.5555 39.8337 35.3693 39.9882 35.2466 40.1829C35.1239 40.3775 35.0625 40.5976 35.0625 40.843C35.0625 41.0165 35.1027 41.1752 35.1831 41.3191C35.2635 41.4587 35.3862 41.5899 35.5513 41.7126C35.7163 41.8311 35.9237 41.9433 36.1734 42.0491C36.423 42.1549 36.7171 42.2564 37.0557 42.3538C37.5677 42.5061 38.0142 42.6754 38.395 42.8616C38.7759 43.0435 39.0933 43.2509 39.3472 43.4836C39.6011 43.7164 39.7915 43.9809 39.9185 44.2771C40.0454 44.5691 40.1089 44.9013 40.1089 45.2737C40.1089 45.663 40.0306 46.0142 39.874 46.3274C39.7175 46.6363 39.4932 46.9008 39.2012 47.1208C38.9134 47.3367 38.5664 47.5038 38.1602 47.6223C37.7582 47.7366 37.3096 47.7937 36.8145 47.7937C36.3701 47.7937 35.9321 47.7345 35.5005 47.616C35.0731 47.4975 34.6838 47.3176 34.3325 47.0764C33.9813 46.831 33.702 46.5263 33.4946 46.1624C33.2873 45.7942 33.1836 45.3647 33.1836 44.8738H34.7769C34.7769 45.1742 34.8277 45.4303 34.9292 45.6418C35.035 45.8534 35.181 46.0269 35.3672 46.1624C35.5534 46.2935 35.7692 46.3909 36.0147 46.4543C36.2643 46.5178 36.5309 46.5496 36.8145 46.5496C37.1869 46.5496 37.4979 46.4967 37.7476 46.3909C38.0015 46.2851 38.1919 46.137 38.3189 45.9465C38.4458 45.7561 38.5093 45.5361 38.5093 45.2864ZM45.9256 44.22H43.5199V42.9568H45.9256C46.3446 42.9568 46.6831 42.8891 46.9413 42.7537C47.1994 42.6182 47.3877 42.432 47.5062 42.1951C47.6289 41.9539 47.6903 41.6788 47.6903 41.3699C47.6903 41.0779 47.6289 40.8049 47.5062 40.551C47.3877 40.2929 47.1994 40.0855 46.9413 39.929C46.6831 39.7724 46.3446 39.6941 45.9256 39.6941H44.0087V47.6667H42.4154V38.4246H45.9256C46.6408 38.4246 47.2481 38.5515 47.7474 38.8054C48.251 39.0551 48.634 39.4021 48.8963 39.8464C49.1587 40.2865 49.2899 40.7901 49.2899 41.3572C49.2899 41.9539 49.1587 42.4659 48.8963 42.8933C48.634 43.3207 48.251 43.6487 47.7474 43.8772C47.2481 44.1057 46.6408 44.22 45.9256 44.22ZM52.4978 38.4246L54.6433 42.8362L56.7888 38.4246H58.5534L55.4431 44.2644V47.6667H53.8371V44.2644L50.7268 38.4246H52.4978ZM61.1075 38.4246H62.5293L65.2017 45.553L67.8677 38.4246H69.2896L65.7603 47.6667H64.6304L61.1075 38.4246ZM60.46 38.4246H61.812L62.0469 44.5945V47.6667H60.46V38.4246ZM68.585 38.4246H69.9434V47.6667H68.3501V44.5945L68.585 38.4246ZM78.7816 46.4036V47.6667H73.8749V46.4036H78.7816ZM74.3256 38.4246V47.6667H72.7323V38.4246H74.3256ZM78.1405 42.2839V43.5281H73.8749V42.2839H78.1405ZM78.7499 38.4246V39.6941H73.8749V38.4246H78.7499ZM85.8425 45.2864C85.8425 45.0959 85.8129 44.9267 85.7536 44.7786C85.6986 44.6305 85.5992 44.495 85.4553 44.3723C85.3114 44.2496 85.1083 44.1311 84.8459 44.0168C84.5878 43.8984 84.2577 43.7778 83.8557 43.655C83.4156 43.5196 83.0093 43.3694 82.6369 43.2043C82.2688 43.0351 81.9472 42.8404 81.6721 42.6204C81.397 42.3961 81.1833 42.1401 81.031 41.8523C80.8786 41.5603 80.8025 41.2239 80.8025 40.843C80.8025 40.4664 80.8807 40.1236 81.0373 39.8147C81.1981 39.5058 81.4245 39.2392 81.7165 39.0149C82.0127 38.7864 82.3619 38.6108 82.7639 38.488C83.1659 38.3611 83.6102 38.2976 84.0969 38.2976C84.7824 38.2976 85.3728 38.4246 85.8679 38.6785C86.3672 38.9324 86.7502 39.273 87.0168 39.7004C87.2876 40.1278 87.4231 40.5997 87.4231 41.116H85.8425C85.8425 40.8113 85.7769 40.5426 85.6457 40.3098C85.5188 40.0728 85.3241 39.8866 85.0617 39.7512C84.8036 39.6158 84.4756 39.5481 84.0779 39.5481C83.7012 39.5481 83.3881 39.6052 83.1384 39.7195C82.8887 39.8337 82.7025 39.9882 82.5798 40.1829C82.4571 40.3775 82.3957 40.5976 82.3957 40.843C82.3957 41.0165 82.4359 41.1752 82.5163 41.3191C82.5967 41.4587 82.7195 41.5899 82.8845 41.7126C83.0495 41.8311 83.2569 41.9433 83.5066 42.0491C83.7562 42.1549 84.0503 42.2564 84.3889 42.3538C84.9009 42.5061 85.3474 42.6754 85.7282 42.8616C86.1091 43.0435 86.4265 43.2509 86.6804 43.4836C86.9343 43.7164 87.1247 43.9809 87.2517 44.2771C87.3786 44.5691 87.4421 44.9013 87.4421 45.2737C87.4421 45.663 87.3638 46.0142 87.2072 46.3274C87.0507 46.6363 86.8264 46.9008 86.5344 47.1208C86.2466 47.3367 85.8996 47.5038 85.4934 47.6223C85.0914 47.7366 84.6428 47.7937 84.1477 47.7937C83.7033 47.7937 83.2654 47.7345 82.8337 47.616C82.4063 47.4975 82.017 47.3176 81.6657 47.0764C81.3145 46.831 81.0352 46.5263 80.8279 46.1624C80.6205 45.7942 80.5168 45.3647 80.5168 44.8738H82.1101C82.1101 45.1742 82.1609 45.4303 82.2624 45.6418C82.3682 45.8534 82.5142 46.0269 82.7004 46.1624C82.8866 46.2935 83.1024 46.3909 83.3479 46.4543C83.5975 46.5178 83.8641 46.5496 84.1477 46.5496C84.5201 46.5496 84.8311 46.4967 85.0808 46.3909C85.3347 46.2851 85.5251 46.137 85.6521 45.9465C85.779 45.7561 85.8425 45.5361 85.8425 45.2864Z"/>
</mask>
<path d="M6.25635 45.5911L8.09717 38.4246H9.06201L8.9541 40.2717L6.98633 47.6667H5.9834L6.25635 45.5911ZM4.87891 38.4246L6.37061 45.5339L6.50391 47.6667H5.4375L3.29834 38.4246H4.87891ZM11.1504 45.5149L12.623 38.4246H14.21L12.0708 47.6667H11.0044L11.1504 45.5149ZM9.43652 38.4246L11.2583 45.6101L11.5249 47.6667H10.522L8.58594 40.2717L8.48438 38.4246H9.43652ZM22.3372 46.4036V47.6667H17.4305V46.4036H22.3372ZM17.8812 38.4246V47.6667H16.2879V38.4246H17.8812ZM21.6961 42.2839V43.5281H17.4305V42.2839H21.6961ZM22.3055 38.4246V39.6941H17.4305V38.4246H22.3055ZM28.0016 43.49H25.6467L25.634 42.3284H27.6906C28.0376 42.3284 28.3317 42.2776 28.5729 42.176C28.8184 42.0702 29.0046 41.92 29.1315 41.7253C29.2585 41.5264 29.322 41.2874 29.322 41.0081C29.322 40.6991 29.2627 40.4473 29.1442 40.2527C29.0257 40.058 28.8438 39.9163 28.5983 39.8274C28.3571 39.7385 28.0482 39.6941 27.6716 39.6941H26.1291V47.6667H24.5358V38.4246H27.6716C28.1794 38.4246 28.6322 38.4732 29.03 38.5706C29.432 38.6679 29.7726 38.8202 30.0519 39.0276C30.3355 39.2307 30.5492 39.4889 30.693 39.802C30.8412 40.1152 30.9152 40.4875 30.9152 40.9192C30.9152 41.3 30.8242 41.6492 30.6423 41.9666C30.4603 42.2797 30.1916 42.5357 29.8361 42.7346C29.4806 42.9335 29.0384 43.052 28.5095 43.0901L28.0016 43.49ZM27.9318 47.6667H25.1452L25.8625 46.4036H27.9318C28.2915 46.4036 28.592 46.3443 28.8332 46.2258C29.0744 46.1031 29.2542 45.936 29.3727 45.7244C29.4955 45.5085 29.5568 45.2568 29.5568 44.969C29.5568 44.6685 29.5039 44.4083 29.3981 44.1882C29.2923 43.9639 29.1252 43.7926 28.8967 43.6741C28.6681 43.5514 28.3698 43.49 28.0016 43.49H26.2116L26.2243 42.3284H28.5539L28.9157 42.7664C29.4235 42.7833 29.8403 42.8954 30.1662 43.1028C30.4963 43.3101 30.7417 43.5789 30.9025 43.9089C31.0633 44.239 31.1437 44.5945 31.1437 44.9753C31.1437 45.5636 31.0147 46.0566 30.7565 46.4543C30.5026 46.8521 30.1366 47.1547 29.6584 47.3621C29.1802 47.5652 28.6047 47.6667 27.9318 47.6667ZM38.5093 45.2864C38.5093 45.0959 38.4797 44.9267 38.4204 44.7786C38.3654 44.6305 38.266 44.495 38.1221 44.3723C37.9782 44.2496 37.7751 44.1311 37.5127 44.0168C37.2546 43.8984 36.9245 43.7778 36.5225 43.655C36.0824 43.5196 35.6761 43.3694 35.3037 43.2043C34.9356 43.0351 34.614 42.8404 34.3389 42.6204C34.0638 42.3961 33.8501 42.1401 33.6978 41.8523C33.5454 41.5603 33.4693 41.2239 33.4693 40.843C33.4693 40.4664 33.5475 40.1236 33.7041 39.8147C33.8649 39.5058 34.0913 39.2392 34.3833 39.0149C34.6795 38.7864 35.0287 38.6108 35.4307 38.488C35.8327 38.3611 36.277 38.2976 36.7637 38.2976C37.4492 38.2976 38.0396 38.4246 38.5347 38.6785C39.034 38.9324 39.417 39.273 39.6836 39.7004C39.9544 40.1278 40.0899 40.5997 40.0899 41.116H38.5093C38.5093 40.8113 38.4437 40.5426 38.3125 40.3098C38.1856 40.0728 37.9909 39.8866 37.7285 39.7512C37.4704 39.6158 37.1424 39.5481 36.7446 39.5481C36.368 39.5481 36.0549 39.6052 35.8052 39.7195C35.5555 39.8337 35.3693 39.9882 35.2466 40.1829C35.1239 40.3775 35.0625 40.5976 35.0625 40.843C35.0625 41.0165 35.1027 41.1752 35.1831 41.3191C35.2635 41.4587 35.3862 41.5899 35.5513 41.7126C35.7163 41.8311 35.9237 41.9433 36.1734 42.0491C36.423 42.1549 36.7171 42.2564 37.0557 42.3538C37.5677 42.5061 38.0142 42.6754 38.395 42.8616C38.7759 43.0435 39.0933 43.2509 39.3472 43.4836C39.6011 43.7164 39.7915 43.9809 39.9185 44.2771C40.0454 44.5691 40.1089 44.9013 40.1089 45.2737C40.1089 45.663 40.0306 46.0142 39.874 46.3274C39.7175 46.6363 39.4932 46.9008 39.2012 47.1208C38.9134 47.3367 38.5664 47.5038 38.1602 47.6223C37.7582 47.7366 37.3096 47.7937 36.8145 47.7937C36.3701 47.7937 35.9321 47.7345 35.5005 47.616C35.0731 47.4975 34.6838 47.3176 34.3325 47.0764C33.9813 46.831 33.702 46.5263 33.4946 46.1624C33.2873 45.7942 33.1836 45.3647 33.1836 44.8738H34.7769C34.7769 45.1742 34.8277 45.4303 34.9292 45.6418C35.035 45.8534 35.181 46.0269 35.3672 46.1624C35.5534 46.2935 35.7692 46.3909 36.0147 46.4543C36.2643 46.5178 36.5309 46.5496 36.8145 46.5496C37.1869 46.5496 37.4979 46.4967 37.7476 46.3909C38.0015 46.2851 38.1919 46.137 38.3189 45.9465C38.4458 45.7561 38.5093 45.5361 38.5093 45.2864ZM45.9256 44.22H43.5199V42.9568H45.9256C46.3446 42.9568 46.6831 42.8891 46.9413 42.7537C47.1994 42.6182 47.3877 42.432 47.5062 42.1951C47.6289 41.9539 47.6903 41.6788 47.6903 41.3699C47.6903 41.0779 47.6289 40.8049 47.5062 40.551C47.3877 40.2929 47.1994 40.0855 46.9413 39.929C46.6831 39.7724 46.3446 39.6941 45.9256 39.6941H44.0087V47.6667H42.4154V38.4246H45.9256C46.6408 38.4246 47.2481 38.5515 47.7474 38.8054C48.251 39.0551 48.634 39.4021 48.8963 39.8464C49.1587 40.2865 49.2899 40.7901 49.2899 41.3572C49.2899 41.9539 49.1587 42.4659 48.8963 42.8933C48.634 43.3207 48.251 43.6487 47.7474 43.8772C47.2481 44.1057 46.6408 44.22 45.9256 44.22ZM52.4978 38.4246L54.6433 42.8362L56.7888 38.4246H58.5534L55.4431 44.2644V47.6667H53.8371V44.2644L50.7268 38.4246H52.4978ZM61.1075 38.4246H62.5293L65.2017 45.553L67.8677 38.4246H69.2896L65.7603 47.6667H64.6304L61.1075 38.4246ZM60.46 38.4246H61.812L62.0469 44.5945V47.6667H60.46V38.4246ZM68.585 38.4246H69.9434V47.6667H68.3501V44.5945L68.585 38.4246ZM78.7816 46.4036V47.6667H73.8749V46.4036H78.7816ZM74.3256 38.4246V47.6667H72.7323V38.4246H74.3256ZM78.1405 42.2839V43.5281H73.8749V42.2839H78.1405ZM78.7499 38.4246V39.6941H73.8749V38.4246H78.7499ZM85.8425 45.2864C85.8425 45.0959 85.8129 44.9267 85.7536 44.7786C85.6986 44.6305 85.5992 44.495 85.4553 44.3723C85.3114 44.2496 85.1083 44.1311 84.8459 44.0168C84.5878 43.8984 84.2577 43.7778 83.8557 43.655C83.4156 43.5196 83.0093 43.3694 82.6369 43.2043C82.2688 43.0351 81.9472 42.8404 81.6721 42.6204C81.397 42.3961 81.1833 42.1401 81.031 41.8523C80.8786 41.5603 80.8025 41.2239 80.8025 40.843C80.8025 40.4664 80.8807 40.1236 81.0373 39.8147C81.1981 39.5058 81.4245 39.2392 81.7165 39.0149C82.0127 38.7864 82.3619 38.6108 82.7639 38.488C83.1659 38.3611 83.6102 38.2976 84.0969 38.2976C84.7824 38.2976 85.3728 38.4246 85.8679 38.6785C86.3672 38.9324 86.7502 39.273 87.0168 39.7004C87.2876 40.1278 87.4231 40.5997 87.4231 41.116H85.8425C85.8425 40.8113 85.7769 40.5426 85.6457 40.3098C85.5188 40.0728 85.3241 39.8866 85.0617 39.7512C84.8036 39.6158 84.4756 39.5481 84.0779 39.5481C83.7012 39.5481 83.3881 39.6052 83.1384 39.7195C82.8887 39.8337 82.7025 39.9882 82.5798 40.1829C82.4571 40.3775 82.3957 40.5976 82.3957 40.843C82.3957 41.0165 82.4359 41.1752 82.5163 41.3191C82.5967 41.4587 82.7195 41.5899 82.8845 41.7126C83.0495 41.8311 83.2569 41.9433 83.5066 42.0491C83.7562 42.1549 84.0503 42.2564 84.3889 42.3538C84.9009 42.5061 85.3474 42.6754 85.7282 42.8616C86.1091 43.0435 86.4265 43.2509 86.6804 43.4836C86.9343 43.7164 87.1247 43.9809 87.2517 44.2771C87.3786 44.5691 87.4421 44.9013 87.4421 45.2737C87.4421 45.663 87.3638 46.0142 87.2072 46.3274C87.0507 46.6363 86.8264 46.9008 86.5344 47.1208C86.2466 47.3367 85.8996 47.5038 85.4934 47.6223C85.0914 47.7366 84.6428 47.7937 84.1477 47.7937C83.7033 47.7937 83.2654 47.7345 82.8337 47.616C82.4063 47.4975 82.017 47.3176 81.6657 47.0764C81.3145 46.831 81.0352 46.5263 80.8279 46.1624C80.6205 45.7942 80.5168 45.3647 80.5168 44.8738H82.1101C82.1101 45.1742 82.1609 45.4303 82.2624 45.6418C82.3682 45.8534 82.5142 46.0269 82.7004 46.1624C82.8866 46.2935 83.1024 46.3909 83.3479 46.4543C83.5975 46.5178 83.8641 46.5496 84.1477 46.5496C84.5201 46.5496 84.8311 46.4967 85.0808 46.3909C85.3347 46.2851 85.5251 46.137 85.6521 45.9465C85.779 45.7561 85.8425 45.5361 85.8425 45.2864Z" fill="#2282DF"/>
<path d="M6.25635 45.5911L5.28779 45.3423L5.27276 45.4008L5.26488 45.4607L6.25635 45.5911ZM8.09717 38.4246V37.4246H7.32157L7.12861 38.1758L8.09717 38.4246ZM9.06201 38.4246L10.0603 38.4829L10.1221 37.4246H9.06201V38.4246ZM8.9541 40.2717L9.92047 40.5289L9.9465 40.4311L9.9524 40.33L8.9541 40.2717ZM6.98633 47.6667V48.6667H7.75503L7.9527 47.9239L6.98633 47.6667ZM5.9834 47.6667L4.99193 47.5364L4.84329 48.6667H5.9834V47.6667ZM4.87891 38.4246L5.85759 38.2192L5.69086 37.4246H4.87891V38.4246ZM6.37061 45.5339L7.36866 45.4716L7.36415 45.3994L7.34929 45.3286L6.37061 45.5339ZM6.50391 47.6667V48.6667H7.56836L7.50196 47.6044L6.50391 47.6667ZM5.4375 47.6667L4.46326 47.8922L4.64252 48.6667H5.4375V47.6667ZM3.29834 38.4246V37.4246H2.04045L2.3241 38.6501L3.29834 38.4246ZM11.1504 45.5149L10.1713 45.3115L10.1573 45.3787L10.1527 45.4472L11.1504 45.5149ZM12.623 38.4246V37.4246H11.8094L11.6439 38.2212L12.623 38.4246ZM14.21 38.4246L15.1842 38.6501L15.4679 37.4246H14.21V38.4246ZM12.0708 47.6667V48.6667H12.8658L13.045 47.8922L12.0708 47.6667ZM11.0044 47.6667L10.0067 47.5991L9.93425 48.6667H11.0044V47.6667ZM9.43652 38.4246L10.4059 38.1788L10.2146 37.4246H9.43652V38.4246ZM11.2583 45.6101L12.25 45.4816L12.2423 45.4223L12.2276 45.3643L11.2583 45.6101ZM11.5249 47.6667V48.6667H12.6629L12.5166 47.5382L11.5249 47.6667ZM10.522 47.6667L9.55458 47.92L9.75007 48.6667H10.522V47.6667ZM8.58594 40.2717L7.58745 40.3266L7.59299 40.4274L7.61854 40.525L8.58594 40.2717ZM8.48438 38.4246V37.4246H7.42788L7.48588 38.4795L8.48438 38.4246ZM7.22491 45.8399L9.06573 38.6733L7.12861 38.1758L5.28779 45.3423L7.22491 45.8399ZM8.09717 39.4246H9.06201V37.4246H8.09717V39.4246ZM8.06371 38.3662L7.9558 40.2134L9.9524 40.33L10.0603 38.4829L8.06371 38.3662ZM7.98773 40.0146L6.01996 47.4096L7.9527 47.9239L9.92047 40.5289L7.98773 40.0146ZM6.98633 46.6667H5.9834V48.6667H6.98633V46.6667ZM6.97486 47.7971L7.24781 45.7214L5.26488 45.4607L4.99193 47.5364L6.97486 47.7971ZM3.90022 38.6299L5.39192 45.7393L7.34929 45.3286L5.85759 38.2192L3.90022 38.6299ZM5.37255 45.5963L5.50585 47.7291L7.50196 47.6044L7.36866 45.4716L5.37255 45.5963ZM6.50391 46.6667H5.4375V48.6667H6.50391V46.6667ZM6.41174 47.4413L4.27258 38.1991L2.3241 38.6501L4.46326 47.8922L6.41174 47.4413ZM3.29834 39.4246H4.87891V37.4246H3.29834V39.4246ZM12.1295 45.7183L13.6022 38.6279L11.6439 38.2212L10.1713 45.3115L12.1295 45.7183ZM12.623 39.4246H14.21V37.4246H12.623V39.4246ZM13.2357 38.1991L11.0966 47.4413L13.045 47.8922L15.1842 38.6501L13.2357 38.1991ZM12.0708 46.6667H11.0044V48.6667H12.0708V46.6667ZM12.0021 47.7344L12.1481 45.5826L10.1527 45.4472L10.0067 47.5991L12.0021 47.7344ZM8.46719 38.6703L10.289 45.8559L12.2276 45.3643L10.4059 38.1788L8.46719 38.6703ZM10.2666 45.7387L10.5332 47.7953L12.5166 47.5382L12.25 45.4816L10.2666 45.7387ZM11.5249 46.6667H10.522V48.6667H11.5249V46.6667ZM11.4894 47.4135L9.55333 40.0185L7.61854 40.525L9.55458 47.92L11.4894 47.4135ZM9.58443 40.2168L9.48287 38.3697L7.48588 38.4795L7.58745 40.3266L9.58443 40.2168ZM8.48438 39.4246H9.43652V37.4246H8.48438V39.4246ZM22.3372 46.4036H23.3372V45.4036H22.3372V46.4036ZM22.3372 47.6667V48.6667H23.3372V47.6667H22.3372ZM17.4305 47.6667H16.4305V48.6667H17.4305V47.6667ZM17.4305 46.4036V45.4036H16.4305V46.4036H17.4305ZM17.8812 38.4246H18.8812V37.4246H17.8812V38.4246ZM17.8812 47.6667V48.6667H18.8812V47.6667H17.8812ZM16.2879 47.6667H15.2879V48.6667H16.2879V47.6667ZM16.2879 38.4246V37.4246H15.2879V38.4246H16.2879ZM21.6961 42.2839H22.6961V41.2839H21.6961V42.2839ZM21.6961 43.5281V44.5281H22.6961V43.5281H21.6961ZM17.4305 43.5281H16.4305V44.5281H17.4305V43.5281ZM17.4305 42.2839V41.2839H16.4305V42.2839H17.4305ZM22.3055 38.4246H23.3055V37.4246H22.3055V38.4246ZM22.3055 39.6941V40.6941H23.3055V39.6941H22.3055ZM17.4305 39.6941H16.4305V40.6941H17.4305V39.6941ZM17.4305 38.4246V37.4246H16.4305V38.4246H17.4305ZM21.3372 46.4036V47.6667H23.3372V46.4036H21.3372ZM22.3372 46.6667H17.4305V48.6667H22.3372V46.6667ZM18.4305 47.6667V46.4036H16.4305V47.6667H18.4305ZM17.4305 47.4036H22.3372V45.4036H17.4305V47.4036ZM16.8812 38.4246V47.6667H18.8812V38.4246H16.8812ZM17.8812 46.6667H16.2879V48.6667H17.8812V46.6667ZM17.2879 47.6667V38.4246H15.2879V47.6667H17.2879ZM16.2879 39.4246H17.8812V37.4246H16.2879V39.4246ZM20.6961 42.2839V43.5281H22.6961V42.2839H20.6961ZM21.6961 42.5281H17.4305V44.5281H21.6961V42.5281ZM18.4305 43.5281V42.2839H16.4305V43.5281H18.4305ZM17.4305 43.2839H21.6961V41.2839H17.4305V43.2839ZM21.3055 38.4246V39.6941H23.3055V38.4246H21.3055ZM22.3055 38.6941H17.4305V40.6941H22.3055V38.6941ZM18.4305 39.6941V38.4246H16.4305V39.6941H18.4305ZM17.4305 39.4246H22.3055V37.4246H17.4305V39.4246ZM28.0016 43.49V44.49H28.3481L28.6203 44.2756L28.0016 43.49ZM25.6467 43.49L24.6467 43.5009L24.6575 44.49H25.6467V43.49ZM25.634 42.3284V41.3284H24.623L24.634 42.3393L25.634 42.3284ZM28.5729 42.176L28.961 43.0977L28.9688 43.0943L28.5729 42.176ZM29.1315 41.7253L29.9692 42.2716L29.9744 42.2634L29.1315 41.7253ZM28.5983 39.8274L28.2526 40.7658L28.2579 40.7677L28.5983 39.8274ZM26.1291 39.6941V38.6941H25.1291V39.6941H26.1291ZM26.1291 47.6667V48.6667H27.1291V47.6667H26.1291ZM24.5358 47.6667H23.5358V48.6667H24.5358V47.6667ZM24.5358 38.4246V37.4246H23.5358V38.4246H24.5358ZM29.03 38.5706L28.7923 39.5419L28.7947 39.5425L29.03 38.5706ZM30.0519 39.0276L29.4558 39.8305L29.4626 39.8356L29.4695 39.8405L30.0519 39.0276ZM30.693 39.802L29.7843 40.2195L29.7891 40.2296L30.693 39.802ZM30.6423 41.9666L31.5069 42.469L31.5098 42.4639L30.6423 41.9666ZM28.5095 43.0901L28.4376 42.0927L28.1317 42.1147L27.8908 42.3045L28.5095 43.0901ZM25.1452 47.6667L24.2756 47.173L23.4274 48.6667H25.1452V47.6667ZM25.8625 46.4036V45.4036H25.2803L24.9929 45.9098L25.8625 46.4036ZM28.8332 46.2258L29.2741 47.1235L29.2866 47.1171L28.8332 46.2258ZM29.3727 45.7244L28.5034 45.2301L28.5002 45.2358L29.3727 45.7244ZM29.3981 44.1882L28.4937 44.6149L28.4969 44.6215L29.3981 44.1882ZM28.8967 43.6741L28.4235 44.5551L28.4299 44.5585L28.4363 44.5618L28.8967 43.6741ZM26.2116 43.49L25.2117 43.4791L25.2006 44.49H26.2116V43.49ZM26.2243 42.3284V41.3284H25.2352L25.2244 42.3174L26.2243 42.3284ZM28.5539 42.3284L29.3248 41.6915L29.0249 41.3284H28.5539V42.3284ZM28.9157 42.7664L28.1447 43.4032L28.4318 43.7508L28.8824 43.7658L28.9157 42.7664ZM30.1662 43.1028L29.6293 43.9465L29.6342 43.9496L30.1662 43.1028ZM30.7565 46.4543L29.9176 45.91L29.9136 45.9163L30.7565 46.4543ZM29.6584 47.3621L30.0494 48.2825L30.0562 48.2795L29.6584 47.3621ZM28.0016 42.49H25.6467V44.49H28.0016V42.49ZM26.6466 43.4791L26.6339 42.3174L24.634 42.3393L24.6467 43.5009L26.6466 43.4791ZM25.634 43.3284H27.6906V41.3284H25.634V43.3284ZM27.6906 43.3284C28.1297 43.3284 28.564 43.2648 28.961 43.0977L28.1849 41.2544C28.0995 41.2903 27.9455 41.3284 27.6906 41.3284V43.3284ZM28.9688 43.0943C29.367 42.9227 29.7193 42.6547 29.9691 42.2716L28.2939 41.1791C28.2899 41.1853 28.2697 41.2178 28.1771 41.2577L28.9688 43.0943ZM29.9744 42.2634C30.2216 41.8762 30.322 41.4425 30.322 41.0081H28.322C28.322 41.1322 28.2954 41.1767 28.2886 41.1873L29.9744 42.2634ZM30.322 41.0081C30.322 40.5787 30.2404 40.1303 29.9984 39.7327L28.29 40.7726C28.285 40.7644 28.322 40.8196 28.322 41.0081H30.322ZM29.9984 39.7327C29.7446 39.3157 29.3656 39.0417 28.9388 38.8871L28.2579 40.7677C28.2946 40.781 28.3063 40.7908 28.3043 40.7892C28.3035 40.7886 28.3009 40.7864 28.2976 40.7827C28.2942 40.779 28.2917 40.7753 28.29 40.7726L29.9984 39.7327ZM28.944 38.889C28.5534 38.7451 28.1163 38.6941 27.6716 38.6941V40.6941C27.9801 40.6941 28.1608 40.7319 28.2526 40.7657L28.944 38.889ZM27.6716 38.6941H26.1291V40.6941H27.6716V38.6941ZM25.1291 39.6941V47.6667H27.1291V39.6941H25.1291ZM26.1291 46.6667H24.5358V48.6667H26.1291V46.6667ZM25.5358 47.6667V38.4246H23.5358V47.6667H25.5358ZM24.5358 39.4246H27.6716V37.4246H24.5358V39.4246ZM27.6716 39.4246C28.1176 39.4246 28.4882 39.4675 28.7923 39.5419L29.2676 37.5992C28.7761 37.4789 28.2412 37.4246 27.6716 37.4246V39.4246ZM28.7947 39.5425C29.0905 39.6141 29.3026 39.7167 29.4558 39.8305L30.648 38.2247C30.2427 37.9237 29.7734 37.7217 29.2653 37.5986L28.7947 39.5425ZM29.4695 39.8405C29.6136 39.9437 29.714 40.0663 29.7844 40.2195L31.6017 39.3845C31.3844 38.9114 31.0573 38.5177 30.6343 38.2147L29.4695 39.8405ZM29.7891 40.2296C29.8604 40.3803 29.9152 40.6 29.9152 40.9192H31.9152C31.9152 40.3751 31.8219 39.85 31.597 39.3744L29.7891 40.2296ZM29.9152 40.9192C29.9152 41.133 29.8663 41.3095 29.7747 41.4692L31.5098 42.4639C31.7822 41.9888 31.9152 41.4671 31.9152 40.9192H29.9152ZM29.7776 41.4641C29.6965 41.6038 29.5669 41.7394 29.3478 41.8619L30.3244 43.6073C30.8163 43.3321 31.2241 42.9557 31.5069 42.469L29.7776 41.4641ZM29.3478 41.8619C29.1529 41.971 28.8627 42.0621 28.4376 42.0927L28.5813 44.0875C29.2141 44.0419 29.8084 43.896 30.3244 43.6073L29.3478 41.8619ZM27.8908 42.3045L27.383 42.7044L28.6203 44.2756L29.1281 43.8757L27.8908 42.3045ZM27.9318 46.6667H25.1452V48.6667H27.9318V46.6667ZM26.0148 48.1605L26.7321 46.8973L24.9929 45.9098L24.2756 47.173L26.0148 48.1605ZM25.8625 47.4036H27.9318V45.4036H25.8625V47.4036ZM27.9318 47.4036C28.395 47.4036 28.8574 47.3281 29.2741 47.1234L28.3923 45.3283C28.3266 45.3605 28.188 45.4036 27.9318 45.4036V47.4036ZM29.2866 47.1171C29.6831 46.9154 30.019 46.617 30.2452 46.213L28.5002 45.2358C28.4895 45.2549 28.4657 45.2908 28.3797 45.3346L29.2866 47.1171ZM30.242 46.2187C30.4632 45.8297 30.5568 45.4022 30.5568 44.969H28.5568C28.5568 45.1113 28.5277 45.1874 28.5034 45.2301L30.242 46.2187ZM30.5568 44.969C30.5568 44.5524 30.4834 44.1377 30.2994 43.7549L28.4969 44.6215C28.5244 44.6789 28.5568 44.7847 28.5568 44.969H30.5568ZM30.3026 43.7616C30.0995 43.3312 29.7721 43.0016 29.357 42.7863L28.4363 44.5618C28.4782 44.5835 28.4852 44.5967 28.4937 44.6149L30.3026 43.7616ZM29.3698 42.7931C28.9476 42.5664 28.4698 42.49 28.0016 42.49V44.49C28.2698 44.49 28.3887 44.5363 28.4235 44.5551L29.3698 42.7931ZM28.0016 42.49H26.2116V44.49H28.0016V42.49ZM27.2115 43.5009L27.2242 42.3393L25.2244 42.3174L25.2117 43.4791L27.2115 43.5009ZM26.2243 43.3284H28.5539V41.3284H26.2243V43.3284ZM27.7829 42.9653L28.1447 43.4032L29.6867 42.1295L29.3248 41.6915L27.7829 42.9653ZM28.8824 43.7658C29.2663 43.7786 29.4948 43.8608 29.6293 43.9464L30.7031 42.2591C30.1859 41.93 29.5807 41.788 28.949 41.7669L28.8824 43.7658ZM29.6342 43.9496C29.8164 44.064 29.9296 44.1952 30.0035 44.3469L31.8015 43.471C31.5538 42.9625 31.1762 42.5563 30.6981 42.256L29.6342 43.9496ZM30.0035 44.3469C30.0954 44.5354 30.1437 44.7404 30.1437 44.9753H32.1437C32.1437 44.4485 32.0313 43.9426 31.8015 43.471L30.0035 44.3469ZM30.1437 44.9753C30.1437 45.4169 30.0479 45.7093 29.9177 45.91L31.5954 46.9987C31.9814 46.4038 32.1437 45.7102 32.1437 44.9753H30.1437ZM29.9136 45.9163C29.778 46.1287 29.5758 46.3079 29.2605 46.4446L30.0562 48.2795C30.6974 48.0015 31.2272 47.5756 31.5994 46.9924L29.9136 45.9163ZM29.2674 46.4417C28.9435 46.5792 28.5082 46.6667 27.9318 46.6667V48.6667C28.7011 48.6667 29.4168 48.5511 30.0493 48.2825L29.2674 46.4417ZM38.4204 44.7786L37.483 45.1268L37.4873 45.1384L37.492 45.15L38.4204 44.7786ZM38.1221 44.3723L37.4731 45.1331L38.1221 44.3723ZM37.5127 44.0168L37.0955 44.9257L37.1045 44.9298L37.1134 44.9337L37.5127 44.0168ZM36.5225 43.655L36.2284 44.6108L36.2305 44.6115L36.5225 43.655ZM35.3037 43.2043L34.886 44.113L34.8986 44.1186L35.3037 43.2043ZM34.3389 42.6204L33.7069 43.3954L33.7142 43.4012L34.3389 42.6204ZM33.6978 41.8523L32.8112 42.3149L32.814 42.3202L33.6978 41.8523ZM33.7041 39.8147L32.8171 39.3529L32.8122 39.3626L33.7041 39.8147ZM34.3833 39.0149L34.9925 39.8079L34.9941 39.8067L34.3833 39.0149ZM35.4307 38.488L35.7227 39.4445L35.7318 39.4416L35.4307 38.488ZM38.5347 38.6785L38.0784 39.5683L38.0814 39.5699L38.5347 38.6785ZM39.6836 39.7004L38.8351 40.2297L38.8389 40.2357L39.6836 39.7004ZM40.0899 41.116V42.116H41.0899V41.116H40.0899ZM38.5093 41.116H37.5093V42.116H38.5093V41.116ZM38.3125 40.3098L37.431 40.782L37.4361 40.7915L37.4414 40.8008L38.3125 40.3098ZM37.7285 39.7512L37.264 40.6368L37.2699 40.6398L37.7285 39.7512ZM35.8052 39.7195L35.3891 38.8102L35.8052 39.7195ZM35.1831 41.3191L34.3101 41.807L34.3165 41.8181L35.1831 41.3191ZM35.5513 41.7126L34.9546 42.5151L34.9613 42.5201L34.9681 42.525L35.5513 41.7126ZM36.1734 42.0491L35.7832 42.9698L36.1734 42.0491ZM37.0557 42.3538L37.3409 41.3952L37.332 41.3927L37.0557 42.3538ZM38.395 42.8616L37.9558 43.76L37.9639 43.7639L38.395 42.8616ZM39.9185 44.2771L38.9993 44.671L39.0014 44.6758L39.9185 44.2771ZM39.874 46.3274L40.766 46.7795L40.7685 46.7746L39.874 46.3274ZM39.2012 47.1208L39.8012 47.9209L39.803 47.9195L39.2012 47.1208ZM38.1602 47.6223L38.4336 48.5842L38.4402 48.5823L38.1602 47.6223ZM35.5005 47.616L35.2334 48.5796L35.2358 48.5803L35.5005 47.616ZM34.3325 47.0764L33.7597 47.8961L33.7664 47.9007L34.3325 47.0764ZM33.4946 46.1624L32.6233 46.6531L32.6258 46.6574L33.4946 46.1624ZM33.1836 44.8738V43.8738H32.1836V44.8738H33.1836ZM34.7769 44.8738H35.7769V43.8738H34.7769V44.8738ZM34.9292 45.6418L34.0277 46.0746L34.0312 46.0818L34.0348 46.0891L34.9292 45.6418ZM35.3672 46.1624L34.779 46.9711L34.7851 46.9755L34.7913 46.9798L35.3672 46.1624ZM36.0147 46.4543L35.7643 47.4225L35.7683 47.4235L36.0147 46.4543ZM37.7476 46.3909L37.363 45.4678L37.3574 45.4701L37.7476 46.3909ZM39.5093 45.2864C39.5093 44.9928 39.4636 44.6939 39.3489 44.4072L37.492 45.15C37.4958 45.1595 37.5093 45.1991 37.5093 45.2864H39.5093ZM39.3579 44.4304C39.2328 44.0936 39.0192 43.8231 38.771 43.6115L37.4731 45.1331C37.4936 45.1506 37.4998 45.1595 37.4986 45.1578C37.4979 45.157 37.4957 45.1538 37.4927 45.1483C37.4897 45.1427 37.4862 45.1354 37.483 45.1268L39.3579 44.4304ZM38.771 43.6115C38.5241 43.4009 38.2234 43.2356 37.912 43.1L37.1134 44.9337C37.3267 45.0266 37.4323 45.0983 37.4731 45.1331L38.771 43.6115ZM37.9299 43.108C37.6169 42.9643 37.241 42.8288 36.8144 42.6986L36.2305 44.6115C36.608 44.7267 36.8923 44.8324 37.0955 44.9257L37.9299 43.108ZM36.8166 42.6993C36.4095 42.574 36.0408 42.4372 35.7089 42.2901L34.8986 44.1186C35.3114 44.3016 35.7553 44.4652 36.2284 44.6108L36.8166 42.6993ZM35.7215 42.2958C35.4164 42.1555 35.1664 42.0018 34.9636 41.8395L33.7142 43.4012C34.0615 43.679 34.4547 43.9146 34.886 44.1129L35.7215 42.2958ZM34.9708 41.8453C34.79 41.6979 34.6659 41.5437 34.5816 41.3844L32.814 42.3202C33.0343 42.7364 33.3376 43.0943 33.7069 43.3954L34.9708 41.8453ZM34.5844 41.3897C34.5174 41.2614 34.4693 41.0881 34.4693 40.843H32.4693C32.4693 41.3597 32.5735 41.8592 32.8112 42.3149L34.5844 41.3897ZM34.4693 40.843C34.4693 40.6095 34.5166 40.4236 34.5961 40.2668L32.8122 39.3626C32.5785 39.8236 32.4693 40.3233 32.4693 40.843H34.4693ZM34.5911 40.2764C34.6808 40.1042 34.8094 39.9486 34.9925 39.8079L33.7742 38.2218C33.3733 38.5298 33.0491 38.9073 32.8171 39.353L34.5911 40.2764ZM34.9941 39.8067C35.1838 39.6603 35.4218 39.5363 35.7226 39.4445L35.1387 37.5316C34.6355 37.6852 34.1753 37.9124 33.7725 38.2231L34.9941 39.8067ZM35.7318 39.4416C36.0227 39.3498 36.3638 39.2976 36.7637 39.2976V37.2976C36.1903 37.2976 35.6427 37.3724 35.1296 37.5345L35.7318 39.4416ZM36.7637 39.2976C37.3268 39.2976 37.7535 39.4017 38.0784 39.5683L38.991 37.7886C38.3256 37.4474 37.5717 37.2976 36.7637 37.2976V39.2976ZM38.0814 39.5699C38.4372 39.7508 38.6754 39.9736 38.8351 40.2297L40.5321 39.1712C40.1586 38.5725 39.6308 38.114 38.9879 37.7871L38.0814 39.5699ZM38.8389 40.2357C39.0061 40.4996 39.0899 40.7851 39.0899 41.116H41.0899C41.0899 40.4142 40.9027 39.7561 40.5283 39.1652L38.8389 40.2357ZM40.0899 40.116H38.5093V42.116H40.0899V40.116ZM39.5093 41.116C39.5093 40.6638 39.4106 40.2214 39.1837 39.8188L37.4414 40.8008C37.4768 40.8637 37.5093 40.9588 37.5093 41.116H39.5093ZM39.194 39.8376C38.9621 39.4047 38.6109 39.0813 38.1872 38.8626L37.2699 40.6398C37.3709 40.692 37.409 40.7409 37.431 40.782L39.194 39.8376ZM38.1931 38.8657C37.749 38.6327 37.2481 38.5481 36.7446 38.5481V40.5481C37.0368 40.5481 37.1918 40.5989 37.264 40.6368L38.1931 38.8657ZM36.7446 38.5481C36.2746 38.5481 35.8084 38.6183 35.3891 38.8102L36.2213 40.6288C36.3014 40.5922 36.4614 40.5481 36.7446 40.5481V38.5481ZM35.3891 38.8102C34.9973 38.9895 34.6457 39.2609 34.4007 39.6496L36.0925 40.7162C36.093 40.7155 36.1138 40.678 36.2213 40.6288L35.3891 38.8102ZM34.4007 39.6496C34.1705 40.0146 34.0625 40.422 34.0625 40.843H36.0625C36.0625 40.7732 36.0772 40.7404 36.0925 40.7162L34.4007 39.6496ZM34.0625 40.843C34.0625 41.178 34.142 41.506 34.3102 41.8069L36.0561 40.8313C36.0569 40.8328 36.0581 40.8351 36.0593 40.8381C36.0605 40.8412 36.0614 40.8441 36.062 40.8466C36.0635 40.8522 36.0625 40.8519 36.0625 40.843H34.0625ZM34.3165 41.8181C34.4812 42.1042 34.7089 42.3324 34.9546 42.5151L36.148 40.9102C36.0636 40.8474 36.0458 40.8133 36.0497 40.8201L34.3165 41.8181ZM34.9681 42.525C35.2094 42.6982 35.4865 42.8441 35.7832 42.9698L36.5635 41.1283C36.3609 41.0425 36.2232 40.964 36.1345 40.9003L34.9681 42.525ZM35.7832 42.9698C36.079 43.0952 36.4129 43.2095 36.7794 43.3148L37.332 41.3927C37.0214 41.3034 36.767 41.2146 36.5635 41.1283L35.7832 42.9698ZM36.7705 43.3122C37.2426 43.4527 37.6354 43.6033 37.9558 43.76L38.8342 41.9632C38.393 41.7475 37.8929 41.5595 37.3409 41.3953L36.7705 43.3122ZM37.9639 43.7639C38.2749 43.9124 38.5047 44.068 38.6715 44.2208L40.0229 42.7465C39.6818 42.4338 39.2769 42.1747 38.8261 41.9593L37.9639 43.7639ZM38.6715 44.2208C38.8281 44.3644 38.932 44.514 38.9993 44.671L40.8376 43.8832C40.651 43.4478 40.3741 43.0684 40.0229 42.7465L38.6715 44.2208ZM39.0014 44.6758C39.0652 44.8225 39.1089 45.0155 39.1089 45.2737H41.1089C41.1089 44.7871 41.0257 44.3157 40.8355 43.8784L39.0014 44.6758ZM39.1089 45.2737C39.1089 45.5254 39.0593 45.7208 38.9796 45.8802L40.7685 46.7746C41.0019 46.3077 41.1089 45.8006 41.1089 45.2737H39.1089ZM38.9821 45.8753C38.8983 46.0405 38.7764 46.1888 38.5993 46.3222L39.803 47.9195C40.21 47.6128 40.5366 47.2321 40.766 46.7795L38.9821 45.8753ZM38.6012 46.3208C38.4249 46.453 38.191 46.5717 37.8802 46.6623L38.4402 48.5823C38.9419 48.436 39.4019 48.2203 39.8012 47.9208L38.6012 46.3208ZM37.8868 46.6604C37.5883 46.7452 37.2337 46.7937 36.8145 46.7937V48.7937C37.3855 48.7937 37.928 48.7279 38.4336 48.5842L37.8868 46.6604ZM36.8145 46.7937C36.4602 46.7937 36.1113 46.7466 35.7652 46.6516L35.2358 48.5803C35.753 48.7223 36.28 48.7937 36.8145 48.7937V46.7937ZM35.7677 46.6523C35.4425 46.5622 35.1549 46.4281 34.8986 46.2521L33.7664 47.9007C34.2126 48.2072 34.7037 48.4328 35.2334 48.5796L35.7677 46.6523ZM34.9053 46.2567C34.6728 46.0942 34.4957 45.8994 34.3635 45.6673L32.6258 46.6574C32.9083 47.1532 33.2899 47.5678 33.7597 47.8961L34.9053 46.2567ZM34.366 45.6716C34.2557 45.4759 34.1836 45.2208 34.1836 44.8738H32.1836C32.1836 45.5085 32.3188 46.1124 32.6233 46.6531L34.366 45.6716ZM33.1836 45.8738H34.7769V43.8738H33.1836V45.8738ZM33.7769 44.8738C33.7769 45.2835 33.8458 45.6956 34.0277 46.0746L35.8307 45.2091C35.8095 45.1649 35.7769 45.065 35.7769 44.8738H33.7769ZM34.0348 46.0891C34.2102 46.4399 34.4596 46.7388 34.779 46.9711L35.9554 45.3536C35.9024 45.3151 35.8598 45.267 35.8236 45.1946L34.0348 46.0891ZM34.7913 46.9798C35.0865 47.1879 35.4153 47.3322 35.7643 47.4225L36.2651 45.4862C36.1232 45.4495 36.0203 45.3992 35.9432 45.3449L34.7913 46.9798ZM35.7683 47.4235C36.1061 47.5094 36.4561 47.5496 36.8145 47.5496V45.5496C36.6058 45.5496 36.4226 45.5262 36.2611 45.4852L35.7683 47.4235ZM36.8145 47.5496C37.274 47.5496 37.7278 47.4853 38.1377 47.3116L37.3574 45.4701C37.268 45.508 37.0997 45.5496 36.8145 45.5496V47.5496ZM38.1322 47.3139C38.531 47.1478 38.894 46.8866 39.1509 46.5012L37.4868 45.3918C37.4861 45.3929 37.4819 45.3994 37.4669 45.4111C37.4508 45.4236 37.4191 45.4444 37.363 45.4678L38.1322 47.3139ZM39.1509 46.5012C39.3973 46.1316 39.5093 45.7147 39.5093 45.2864H37.5093C37.5093 45.3574 37.4943 45.3806 37.4868 45.3918L39.1509 46.5012ZM43.5199 44.22H42.5199V45.22H43.5199V44.22ZM43.5199 42.9568V41.9568H42.5199V42.9568H43.5199ZM47.5062 42.1951L46.6149 41.7416L46.6118 41.7479L47.5062 42.1951ZM47.5062 40.551L46.5974 40.9682L46.6015 40.9772L46.6059 40.9862L47.5062 40.551ZM44.0087 39.6941V38.6941H43.0087V39.6941H44.0087ZM44.0087 47.6667V48.6667H45.0087V47.6667H44.0087ZM42.4154 47.6667H41.4154V48.6667H42.4154V47.6667ZM42.4154 38.4246V37.4246H41.4154V38.4246H42.4154ZM47.7474 38.8054L47.2942 39.6969L47.3032 39.7013L47.7474 38.8054ZM48.8963 39.8464L48.0352 40.3549L48.0374 40.3585L48.8963 39.8464ZM47.7474 43.8772L47.3342 42.9666L47.3313 42.9679L47.7474 43.8772ZM45.9256 43.22H43.5199V45.22H45.9256V43.22ZM44.5199 44.22V42.9568H42.5199V44.22H44.5199ZM43.5199 43.9568H45.9256V41.9568H43.5199V43.9568ZM45.9256 43.9568C46.4404 43.9568 46.9555 43.8754 47.4058 43.6392L46.4767 41.8681C46.4108 41.9027 46.2488 41.9568 45.9256 41.9568V43.9568ZM47.4058 43.6392C47.8301 43.4166 48.179 43.0857 48.4006 42.6423L46.6118 41.7479C46.5965 41.7784 46.5687 41.8199 46.4767 41.8681L47.4058 43.6392ZM48.3975 42.6485C48.6012 42.2481 48.6903 41.814 48.6903 41.3699H46.6903C46.6903 41.5436 46.6567 41.6596 46.6149 41.7416L48.3975 42.6485ZM48.6903 41.3699C48.6903 40.9327 48.5972 40.5103 48.4066 40.1159L46.6059 40.9862C46.6606 41.0995 46.6903 41.2231 46.6903 41.3699H48.6903ZM48.415 40.1339C48.2078 39.6824 47.8776 39.3273 47.4599 39.0739L46.4227 40.784C46.5212 40.8437 46.5676 40.9034 46.5974 40.9682L48.415 40.1339ZM47.4599 39.0739C46.9961 38.7926 46.4596 38.6941 45.9256 38.6941V40.6941C46.2296 40.6941 46.3702 40.7521 46.4227 40.784L47.4599 39.0739ZM45.9256 38.6941H44.0087V40.6941H45.9256V38.6941ZM43.0087 39.6941V47.6667H45.0087V39.6941H43.0087ZM44.0087 46.6667H42.4154V48.6667H44.0087V46.6667ZM43.4154 47.6667V38.4246H41.4154V47.6667H43.4154ZM42.4154 39.4246H45.9256V37.4246H42.4154V39.4246ZM45.9256 39.4246C46.5256 39.4246 46.9687 39.5313 47.2942 39.6968L48.2007 37.914C47.5275 37.5717 46.756 37.4246 45.9256 37.4246V39.4246ZM47.3032 39.7013C47.6494 39.873 47.8802 40.0922 48.0353 40.3549L49.7574 39.338C49.3878 38.712 48.8526 38.2372 48.1916 37.9095L47.3032 39.7013ZM48.0374 40.3585C48.1978 40.6276 48.2899 40.9506 48.2899 41.3572H50.2899C50.2899 40.6296 50.1196 39.9455 49.7553 39.3344L48.0374 40.3585ZM48.2899 41.3572C48.2899 41.8045 48.1929 42.1278 48.0441 42.3702L49.7486 43.4165C50.1245 42.804 50.2899 42.1032 50.2899 41.3572H48.2899ZM48.0441 42.3702C47.8968 42.6102 47.6755 42.8117 47.3342 42.9666L48.1606 44.7878C48.8265 44.4857 49.3712 44.0313 49.7486 43.4165L48.0441 42.3702ZM47.3313 42.9679C46.9957 43.1215 46.5388 43.22 45.9256 43.22V45.22C46.7428 45.22 47.5004 45.09 48.1635 44.7865L47.3313 42.9679ZM52.4978 38.4246L53.397 37.9872L53.1234 37.4246H52.4978V38.4246ZM54.6433 42.8362L53.744 43.2735L54.6433 45.1227L55.5426 43.2735L54.6433 42.8362ZM56.7888 38.4246V37.4246H56.1631L55.8895 37.9872L56.7888 38.4246ZM58.5534 38.4246L59.436 38.8947L60.219 37.4246H58.5534V38.4246ZM55.4431 44.2644L54.5604 43.7943L54.4431 44.0147V44.2644H55.4431ZM55.4431 47.6667V48.6667H56.4431V47.6667H55.4431ZM53.8371 47.6667H52.8371V48.6667H53.8371V47.6667ZM53.8371 44.2644H54.8371V44.0147L54.7197 43.7943L53.8371 44.2644ZM50.7268 38.4246V37.4246H49.0612L49.8441 38.8947L50.7268 38.4246ZM51.5985 38.8619L53.744 43.2735L55.5426 42.3988L53.397 37.9872L51.5985 38.8619ZM55.5426 43.2735L57.6881 38.8619L55.8895 37.9872L53.744 42.3988L55.5426 43.2735ZM56.7888 39.4246H58.5534V37.4246H56.7888V39.4246ZM57.6708 37.9545L54.5604 43.7943L56.3257 44.7345L59.436 38.8947L57.6708 37.9545ZM54.4431 44.2644V47.6667H56.4431V44.2644H54.4431ZM55.4431 46.6667H53.8371V48.6667H55.4431V46.6667ZM54.8371 47.6667V44.2644H52.8371V47.6667H54.8371ZM54.7197 43.7943L51.6094 37.9545L49.8441 38.8947L52.9545 44.7345L54.7197 43.7943ZM50.7268 39.4246H52.4978V37.4246H50.7268V39.4246ZM61.1075 38.4246V37.4246H59.6561L60.173 38.7807L61.1075 38.4246ZM62.5293 38.4246L63.4657 38.0735L63.2224 37.4246H62.5293V38.4246ZM65.2017 45.553L64.2653 45.904L65.2028 48.4047L66.1383 45.9033L65.2017 45.553ZM67.8677 38.4246V37.4246H67.1741L66.9311 38.0743L67.8677 38.4246ZM69.2896 38.4246L70.2238 38.7813L70.7419 37.4246H69.2896V38.4246ZM65.7603 47.6667V48.6667H66.4489L66.6945 48.0235L65.7603 47.6667ZM64.6304 47.6667L63.696 48.0229L63.9414 48.6667H64.6304V47.6667ZM60.46 38.4246V37.4246H59.46V38.4246H60.46ZM61.812 38.4246L62.8113 38.3865L62.7747 37.4246H61.812V38.4246ZM62.0469 44.5945H63.0469V44.5755L63.0462 44.5564L62.0469 44.5945ZM62.0469 47.6667V48.6667H63.0469V47.6667H62.0469ZM60.46 47.6667H59.46V48.6667H60.46V47.6667ZM68.585 38.4246V37.4246H67.6223L67.5857 38.3865L68.585 38.4246ZM69.9434 38.4246H70.9434V37.4246H69.9434V38.4246ZM69.9434 47.6667V48.6667H70.9434V47.6667H69.9434ZM68.3501 47.6667H67.3501V48.6667H68.3501V47.6667ZM68.3501 44.5945L67.3509 44.5564L67.3501 44.5755V44.5945H68.3501ZM61.1075 39.4246H62.5293V37.4246H61.1075V39.4246ZM61.593 38.7756L64.2653 45.904L66.1381 45.2019L63.4657 38.0735L61.593 38.7756ZM66.1383 45.9033L68.8044 38.7749L66.9311 38.0743L64.2651 45.2027L66.1383 45.9033ZM67.8677 39.4246H69.2896V37.4246H67.8677V39.4246ZM68.3554 38.0678L64.8261 47.31L66.6945 48.0235L70.2238 38.7813L68.3554 38.0678ZM65.7603 46.6667H64.6304V48.6667H65.7603V46.6667ZM65.5648 47.3106L62.0419 38.0684L60.173 38.7807L63.696 48.0229L65.5648 47.3106ZM60.46 39.4246H61.812V37.4246H60.46V39.4246ZM60.8128 38.4626L61.0476 44.6325L63.0462 44.5564L62.8113 38.3865L60.8128 38.4626ZM61.0469 44.5945V47.6667H63.0469V44.5945H61.0469ZM62.0469 46.6667H60.46V48.6667H62.0469V46.6667ZM61.46 47.6667V38.4246H59.46V47.6667H61.46ZM68.585 39.4246H69.9434V37.4246H68.585V39.4246ZM68.9434 38.4246V47.6667H70.9434V38.4246H68.9434ZM69.9434 46.6667H68.3501V48.6667H69.9434V46.6667ZM69.3501 47.6667V44.5945H67.3501V47.6667H69.3501ZM69.3494 44.6325L69.5843 38.4626L67.5857 38.3865L67.3509 44.5564L69.3494 44.6325ZM78.7816 46.4036H79.7816V45.4036H78.7816V46.4036ZM78.7816 47.6667V48.6667H79.7816V47.6667H78.7816ZM73.8749 47.6667H72.8749V48.6667H73.8749V47.6667ZM73.8749 46.4036V45.4036H72.8749V46.4036H73.8749ZM74.3256 38.4246H75.3256V37.4246H74.3256V38.4246ZM74.3256 47.6667V48.6667H75.3256V47.6667H74.3256ZM72.7323 47.6667H71.7323V48.6667H72.7323V47.6667ZM72.7323 38.4246V37.4246H71.7323V38.4246H72.7323ZM78.1405 42.2839H79.1405V41.2839H78.1405V42.2839ZM78.1405 43.5281V44.5281H79.1405V43.5281H78.1405ZM73.8749 43.5281H72.8749V44.5281H73.8749V43.5281ZM73.8749 42.2839V41.2839H72.8749V42.2839H73.8749ZM78.7499 38.4246H79.7499V37.4246H78.7499V38.4246ZM78.7499 39.6941V40.6941H79.7499V39.6941H78.7499ZM73.8749 39.6941H72.8749V40.6941H73.8749V39.6941ZM73.8749 38.4246V37.4246H72.8749V38.4246H73.8749ZM77.7816 46.4036V47.6667H79.7816V46.4036H77.7816ZM78.7816 46.6667H73.8749V48.6667H78.7816V46.6667ZM74.8749 47.6667V46.4036H72.8749V47.6667H74.8749ZM73.8749 47.4036H78.7816V45.4036H73.8749V47.4036ZM73.3256 38.4246V47.6667H75.3256V38.4246H73.3256ZM74.3256 46.6667H72.7323V48.6667H74.3256V46.6667ZM73.7323 47.6667V38.4246H71.7323V47.6667H73.7323ZM72.7323 39.4246H74.3256V37.4246H72.7323V39.4246ZM77.1405 42.2839V43.5281H79.1405V42.2839H77.1405ZM78.1405 42.5281H73.8749V44.5281H78.1405V42.5281ZM74.8749 43.5281V42.2839H72.8749V43.5281H74.8749ZM73.8749 43.2839H78.1405V41.2839H73.8749V43.2839ZM77.7499 38.4246V39.6941H79.7499V38.4246H77.7499ZM78.7499 38.6941H73.8749V40.6941H78.7499V38.6941ZM74.8749 39.6941V38.4246H72.8749V39.6941H74.8749ZM73.8749 39.4246H78.7499V37.4246H73.8749V39.4246ZM85.7536 44.7786L84.8162 45.1268L84.8205 45.1384L84.8252 45.15L85.7536 44.7786ZM85.4553 44.3723L84.8063 45.1331L85.4553 44.3723ZM84.8459 44.0168L84.4287 44.9257L84.4377 44.9298L84.4466 44.9337L84.8459 44.0168ZM83.8557 43.655L83.5616 44.6108L83.5637 44.6115L83.8557 43.655ZM82.6369 43.2043L82.2192 44.113L82.2318 44.1186L82.6369 43.2043ZM81.6721 42.6204L81.0401 43.3954L81.0474 43.4012L81.6721 42.6204ZM81.031 41.8523L80.1444 42.3149L80.1472 42.3202L81.031 41.8523ZM81.0373 39.8147L80.1503 39.3529L80.1454 39.3626L81.0373 39.8147ZM81.7165 39.0149L82.3257 39.8079L82.3273 39.8067L81.7165 39.0149ZM82.7639 38.488L83.0559 39.4445L83.065 39.4416L82.7639 38.488ZM85.8679 38.6785L85.4116 39.5683L85.4146 39.5699L85.8679 38.6785ZM87.0168 39.7004L86.1683 40.2297L86.1721 40.2357L87.0168 39.7004ZM87.4231 41.116V42.116H88.4231V41.116H87.4231ZM85.8425 41.116H84.8425V42.116H85.8425V41.116ZM85.6457 40.3098L84.7642 40.782L84.7693 40.7915L84.7746 40.8008L85.6457 40.3098ZM85.0617 39.7512L84.5972 40.6368L84.6031 40.6398L85.0617 39.7512ZM83.1384 39.7195L82.7223 38.8102L83.1384 39.7195ZM82.5163 41.3191L81.6433 41.807L81.6497 41.8181L82.5163 41.3191ZM82.8845 41.7126L82.2878 42.5151L82.2945 42.5201L82.3013 42.525L82.8845 41.7126ZM83.5066 42.0491L83.1164 42.9698L83.5066 42.0491ZM84.3889 42.3538L84.6741 41.3952L84.6652 41.3927L84.3889 42.3538ZM85.7282 42.8616L85.289 43.76L85.2971 43.7639L85.7282 42.8616ZM87.2517 44.2771L86.3325 44.671L86.3346 44.6758L87.2517 44.2771ZM87.2072 46.3274L88.0992 46.7795L88.1017 46.7746L87.2072 46.3274ZM86.5344 47.1208L87.1344 47.9209L87.1362 47.9195L86.5344 47.1208ZM85.4934 47.6223L85.7668 48.5842L85.7734 48.5823L85.4934 47.6223ZM82.8337 47.616L82.5666 48.5796L82.569 48.5803L82.8337 47.616ZM81.6657 47.0764L81.0929 47.8961L81.0996 47.9007L81.6657 47.0764ZM80.8279 46.1624L79.9565 46.6531L79.959 46.6574L80.8279 46.1624ZM80.5168 44.8738V43.8738H79.5168V44.8738H80.5168ZM82.1101 44.8738H83.1101V43.8738H82.1101V44.8738ZM82.2624 45.6418L81.3609 46.0746L81.3644 46.0818L81.368 46.0891L82.2624 45.6418ZM82.7004 46.1624L82.1122 46.9711L82.1183 46.9755L82.1245 46.9798L82.7004 46.1624ZM83.3479 46.4543L83.0975 47.4225L83.1015 47.4235L83.3479 46.4543ZM85.0808 46.3909L84.6962 45.4678L84.6906 45.4701L85.0808 46.3909ZM86.8425 45.2864C86.8425 44.9928 86.7968 44.6939 86.6821 44.4072L84.8252 45.15C84.829 45.1595 84.8425 45.1991 84.8425 45.2864H86.8425ZM86.6911 44.4304C86.566 44.0936 86.3524 43.8231 86.1042 43.6115L84.8063 45.1331C84.8268 45.1506 84.833 45.1595 84.8318 45.1578C84.8312 45.157 84.8289 45.1538 84.8259 45.1483C84.8229 45.1427 84.8194 45.1354 84.8162 45.1268L86.6911 44.4304ZM86.1042 43.6115C85.8573 43.4009 85.5566 43.2356 85.2452 43.1L84.4466 44.9337C84.6599 45.0266 84.7655 45.0983 84.8063 45.1331L86.1042 43.6115ZM85.2631 43.108C84.9501 42.9643 84.5742 42.8288 84.1476 42.6986L83.5637 44.6115C83.9412 44.7267 84.2255 44.8324 84.4287 44.9257L85.2631 43.108ZM84.1498 42.6993C83.7427 42.574 83.374 42.4372 83.0421 42.2901L82.2318 44.1186C82.6446 44.3016 83.0885 44.4652 83.5616 44.6108L84.1498 42.6993ZM83.0547 42.2958C82.7496 42.1555 82.4996 42.0018 82.2968 41.8395L81.0474 43.4012C81.3947 43.679 81.7879 43.9146 82.2192 44.1129L83.0547 42.2958ZM82.304 41.8453C82.1232 41.6979 81.9991 41.5437 81.9148 41.3844L80.1472 42.3202C80.3675 42.7364 80.6708 43.0943 81.0402 43.3954L82.304 41.8453ZM81.9176 41.3897C81.8506 41.2614 81.8025 41.0881 81.8025 40.843H79.8025C79.8025 41.3597 79.9067 41.8592 80.1444 42.3149L81.9176 41.3897ZM81.8025 40.843C81.8025 40.6095 81.8498 40.4236 81.9293 40.2668L80.1454 39.3626C79.9117 39.8236 79.8025 40.3233 79.8025 40.843H81.8025ZM81.9243 40.2764C82.014 40.1042 82.1426 39.9486 82.3257 39.8079L81.1074 38.2218C80.7065 38.5298 80.3823 38.9073 80.1503 39.353L81.9243 40.2764ZM82.3273 39.8067C82.517 39.6603 82.755 39.5363 83.0558 39.4445L82.4719 37.5316C81.9687 37.6852 81.5085 37.9124 81.1057 38.2231L82.3273 39.8067ZM83.065 39.4416C83.3559 39.3498 83.697 39.2976 84.0969 39.2976V37.2976C83.5235 37.2976 82.9759 37.3724 82.4628 37.5345L83.065 39.4416ZM84.0969 39.2976C84.66 39.2976 85.0867 39.4017 85.4116 39.5683L86.3242 37.7886C85.6588 37.4474 84.9049 37.2976 84.0969 37.2976V39.2976ZM85.4146 39.5699C85.7704 39.7508 86.0086 39.9736 86.1683 40.2297L87.8653 39.1712C87.4918 38.5725 86.964 38.114 86.3211 37.7871L85.4146 39.5699ZM86.1721 40.2357C86.3394 40.4996 86.4231 40.7851 86.4231 41.116H88.4231C88.4231 40.4142 88.2359 39.7561 87.8615 39.1652L86.1721 40.2357ZM87.4231 40.116H85.8425V42.116H87.4231V40.116ZM86.8425 41.116C86.8425 40.6638 86.7438 40.2214 86.5169 39.8188L84.7746 40.8008C84.81 40.8637 84.8425 40.9588 84.8425 41.116H86.8425ZM86.5272 39.8376C86.2953 39.4047 85.9441 39.0813 85.5204 38.8626L84.6031 40.6398C84.7041 40.692 84.7422 40.7409 84.7642 40.782L86.5272 39.8376ZM85.5263 38.8657C85.0822 38.6327 84.5813 38.5481 84.0779 38.5481V40.5481C84.37 40.5481 84.525 40.5989 84.5972 40.6368L85.5263 38.8657ZM84.0779 38.5481C83.6078 38.5481 83.1416 38.6183 82.7223 38.8102L83.5545 40.6288C83.6346 40.5922 83.7946 40.5481 84.0779 40.5481V38.5481ZM82.7223 38.8102C82.3305 38.9895 81.9789 39.2609 81.7339 39.6496L83.4257 40.7162C83.4262 40.7155 83.447 40.678 83.5545 40.6288L82.7223 38.8102ZM81.7339 39.6496C81.5037 40.0146 81.3957 40.422 81.3957 40.843H83.3957C83.3957 40.7732 83.4104 40.7404 83.4257 40.7162L81.7339 39.6496ZM81.3957 40.843C81.3957 41.178 81.4752 41.506 81.6434 41.8069L83.3893 40.8313C83.3901 40.8328 83.3913 40.8351 83.3925 40.8381C83.3937 40.8412 83.3946 40.8441 83.3953 40.8466C83.3967 40.8522 83.3957 40.8519 83.3957 40.843H81.3957ZM81.6497 41.8181C81.8144 42.1042 82.0421 42.3324 82.2878 42.5151L83.4812 40.9102C83.3968 40.8474 83.379 40.8133 83.3829 40.8201L81.6497 41.8181ZM82.3013 42.525C82.5426 42.6982 82.8197 42.8441 83.1164 42.9698L83.8967 41.1283C83.6941 41.0425 83.5564 40.964 83.4677 40.9003L82.3013 42.525ZM83.1164 42.9698C83.4122 43.0952 83.7461 43.2095 84.1126 43.3148L84.6652 41.3927C84.3546 41.3034 84.1002 41.2146 83.8967 41.1283L83.1164 42.9698ZM84.1037 43.3122C84.5758 43.4527 84.9686 43.6033 85.289 43.76L86.1675 41.9632C85.7262 41.7475 85.2261 41.5595 84.6741 41.3953L84.1037 43.3122ZM85.2971 43.7639C85.6081 43.9124 85.8379 44.068 86.0047 44.2208L87.3561 42.7465C87.015 42.4338 86.6101 42.1747 86.1593 41.9593L85.2971 43.7639ZM86.0047 44.2208C86.1613 44.3644 86.2652 44.514 86.3325 44.671L88.1708 43.8832C87.9842 43.4478 87.7073 43.0684 87.3561 42.7465L86.0047 44.2208ZM86.3346 44.6758C86.3984 44.8225 86.4421 45.0155 86.4421 45.2737H88.4421C88.4421 44.7871 88.3589 44.3157 88.1687 43.8784L86.3346 44.6758ZM86.4421 45.2737C86.4421 45.5254 86.3925 45.7208 86.3128 45.8802L88.1017 46.7746C88.3351 46.3077 88.4421 45.8006 88.4421 45.2737H86.4421ZM86.3153 45.8753C86.2315 46.0405 86.1096 46.1888 85.9325 46.3222L87.1362 47.9195C87.5432 47.6128 87.8698 47.2321 88.0992 46.7795L86.3153 45.8753ZM85.9344 46.3208C85.7581 46.453 85.5242 46.5717 85.2134 46.6623L85.7734 48.5823C86.2751 48.436 86.7351 48.2203 87.1344 47.9208L85.9344 46.3208ZM85.22 46.6604C84.9215 46.7452 84.5669 46.7937 84.1477 46.7937V48.7937C84.7187 48.7937 85.2612 48.7279 85.7668 48.5842L85.22 46.6604ZM84.1477 46.7937C83.7934 46.7937 83.4445 46.7466 83.0984 46.6516L82.569 48.5803C83.0862 48.7223 83.6132 48.7937 84.1477 48.7937V46.7937ZM83.1009 46.6523C82.7757 46.5622 82.4881 46.4281 82.2318 46.2521L81.0996 47.9007C81.5458 48.2072 82.0369 48.4328 82.5666 48.5796L83.1009 46.6523ZM82.2385 46.2567C82.006 46.0942 81.8289 45.8994 81.6967 45.6673L79.959 46.6574C80.2415 47.1532 80.6231 47.5678 81.0929 47.8961L82.2385 46.2567ZM81.6992 45.6716C81.5889 45.4759 81.5168 45.2208 81.5168 44.8738H79.5168C79.5168 45.5085 79.652 46.1124 79.9565 46.6531L81.6992 45.6716ZM80.5168 45.8738H82.1101V43.8738H80.5168V45.8738ZM81.1101 44.8738C81.1101 45.2835 81.179 45.6956 81.3609 46.0746L83.1639 45.2091C83.1427 45.1649 83.1101 45.065 83.1101 44.8738H81.1101ZM81.368 46.0891C81.5434 46.4399 81.7928 46.7388 82.1122 46.9711L83.2886 45.3536C83.2356 45.3151 83.193 45.267 83.1568 45.1946L81.368 46.0891ZM82.1245 46.9798C82.4197 47.1879 82.7485 47.3322 83.0975 47.4225L83.5983 45.4862C83.4564 45.4495 83.3535 45.3992 83.2764 45.3449L82.1245 46.9798ZM83.1015 47.4235C83.4393 47.5094 83.7893 47.5496 84.1477 47.5496V45.5496C83.939 45.5496 83.7558 45.5262 83.5943 45.4852L83.1015 47.4235ZM84.1477 47.5496C84.6073 47.5496 85.061 47.4853 85.4709 47.3116L84.6906 45.4701C84.6012 45.508 84.4329 45.5496 84.1477 45.5496V47.5496ZM85.4654 47.3139C85.8642 47.1478 86.2272 46.8866 86.4841 46.5012L84.82 45.3918C84.8193 45.3929 84.8151 45.3994 84.8001 45.4111C84.784 45.4236 84.7523 45.4444 84.6962 45.4678L85.4654 47.3139ZM86.4841 46.5012C86.7305 46.1316 86.8425 45.7147 86.8425 45.2864H84.8425C84.8425 45.3574 84.8275 45.3806 84.82 45.3918L86.4841 46.5012Z" fill="white" mask="url(#path-3-outside-1_554_2)"/>
<defs>
<filter id="filter0_d_554_2" x="0" y="0" width="90" height="94" filterUnits="userSpaceOnUse" color-interpolation-filters="sRGB">
<feFlood flood-opacity="0" result="BackgroundImageFix"/>
<feColorMatrix in="SourceAlpha" type="matrix" values="0 0 0 0 0 0 0 0 0 0 0 0 0 0 0 0 0 0 127 0" result="hardAlpha"/>
<feOffset dy="4"/>
<feGaussianBlur stdDeviation="2"/>
<feComposite in2="hardAlpha" operator="out"/>
<feColorMatrix type="matrix" values="0 0 0 0 0 0 0 0 0 0 0 0 0 0 0 0 0 0 0.25 0"/>
<feBlend mode="normal" in2="BackgroundImageFix" result="effect1_dropShadow_554_2"/>
<feBlend mode="normal" in="SourceGraphic" in2="effect1_dropShadow_554_2" result="shape"/>
</filter>
</defs>
</svg>
